<mxfile host="app.diagrams.net" agent="Mozilla/5.0 (Windows NT 10.0; Win64; x64) AppleWebKit/537.36 (KHTML, like Gecko) Chrome/128.0.0.0 Safari/537.36" version="24.7.16">
  <diagram name="Page-1" id="W_szsCbcSM6qWaft8dAj">
    <mxGraphModel dx="1032" dy="501" grid="1" gridSize="10" guides="1" tooltips="1" connect="1" arrows="1" fold="1" page="1" pageScale="1" pageWidth="827" pageHeight="1169" math="0" shadow="0">
      <root>
        <mxCell id="0" />
        <mxCell id="1" parent="0" />
        <mxCell id="y8c-V_NwI8Mhhs_DqDop-52" style="edgeStyle=orthogonalEdgeStyle;rounded=0;orthogonalLoop=1;jettySize=auto;html=1;exitX=0;exitY=0.5;exitDx=0;exitDy=0;" edge="1" parent="1" source="y8c-V_NwI8Mhhs_DqDop-1" target="y8c-V_NwI8Mhhs_DqDop-2">
          <mxGeometry relative="1" as="geometry" />
        </mxCell>
        <mxCell id="y8c-V_NwI8Mhhs_DqDop-1" value="&lt;font style=&quot;font-size: 14px;&quot;&gt;&lt;b&gt;Satellite Data&lt;/b&gt;&lt;/font&gt;" style="rounded=1;whiteSpace=wrap;html=1;fillColor=#fff2cc;gradientColor=#ffd966;strokeColor=#d6b656;" vertex="1" parent="1">
          <mxGeometry x="300" y="30" width="240" height="40" as="geometry" />
        </mxCell>
        <mxCell id="y8c-V_NwI8Mhhs_DqDop-20" style="edgeStyle=orthogonalEdgeStyle;rounded=0;orthogonalLoop=1;jettySize=auto;html=1;exitX=1;exitY=0.5;exitDx=0;exitDy=0;" edge="1" parent="1" source="y8c-V_NwI8Mhhs_DqDop-2" target="y8c-V_NwI8Mhhs_DqDop-3">
          <mxGeometry relative="1" as="geometry" />
        </mxCell>
        <mxCell id="y8c-V_NwI8Mhhs_DqDop-49" style="edgeStyle=orthogonalEdgeStyle;rounded=0;orthogonalLoop=1;jettySize=auto;html=1;exitX=0.5;exitY=1;exitDx=0;exitDy=0;" edge="1" parent="1" source="y8c-V_NwI8Mhhs_DqDop-2">
          <mxGeometry relative="1" as="geometry">
            <mxPoint x="275" y="170" as="targetPoint" />
          </mxGeometry>
        </mxCell>
        <mxCell id="y8c-V_NwI8Mhhs_DqDop-2" value="&lt;font style=&quot;font-size: 14px;&quot;&gt;&lt;b&gt;Landsat Images (1986,2014,2024)&lt;/b&gt;&lt;/font&gt;" style="rounded=1;whiteSpace=wrap;html=1;fillColor=#ffcd28;gradientColor=#ffa500;strokeColor=#d79b00;" vertex="1" parent="1">
          <mxGeometry x="180" y="100" width="190" height="40" as="geometry" />
        </mxCell>
        <mxCell id="y8c-V_NwI8Mhhs_DqDop-79" style="edgeStyle=orthogonalEdgeStyle;rounded=0;orthogonalLoop=1;jettySize=auto;html=1;exitX=0.5;exitY=1;exitDx=0;exitDy=0;entryX=0.5;entryY=1;entryDx=0;entryDy=0;" edge="1" parent="1" source="y8c-V_NwI8Mhhs_DqDop-3" target="y8c-V_NwI8Mhhs_DqDop-5">
          <mxGeometry relative="1" as="geometry" />
        </mxCell>
        <mxCell id="y8c-V_NwI8Mhhs_DqDop-3" value="&lt;font style=&quot;font-size: 14px;&quot;&gt;&lt;b&gt;Thermal Infrared band&lt;/b&gt;&lt;/font&gt;" style="rounded=1;whiteSpace=wrap;html=1;fillColor=#ffcd28;gradientColor=#ffa500;strokeColor=#d79b00;" vertex="1" parent="1">
          <mxGeometry x="430" y="100" width="230" height="40" as="geometry" />
        </mxCell>
        <mxCell id="y8c-V_NwI8Mhhs_DqDop-5" value="" style="shape=partialRectangle;whiteSpace=wrap;html=1;bottom=1;right=1;left=1;top=0;fillColor=none;routingCenterX=-0.5;rotation=-180;" vertex="1" parent="1">
          <mxGeometry x="430" y="170" width="220" height="30" as="geometry" />
        </mxCell>
        <mxCell id="y8c-V_NwI8Mhhs_DqDop-8" value="&lt;font style=&quot;font-size: 14px;&quot;&gt;&lt;b&gt;Band 10 and 11&lt;/b&gt;&lt;/font&gt;" style="rounded=1;whiteSpace=wrap;html=1;fillColor=#dae8fc;gradientColor=#7ea6e0;strokeColor=#6c8ebf;" vertex="1" parent="1">
          <mxGeometry x="360" y="200" width="160" height="30" as="geometry" />
        </mxCell>
        <mxCell id="y8c-V_NwI8Mhhs_DqDop-9" value="&lt;font style=&quot;font-size: 14px;&quot;&gt;&lt;b&gt;Band 6&lt;/b&gt;&lt;/font&gt;" style="rounded=1;whiteSpace=wrap;html=1;fillColor=#dae8fc;gradientColor=#7ea6e0;strokeColor=#6c8ebf;" vertex="1" parent="1">
          <mxGeometry x="570" y="200" width="160" height="30" as="geometry" />
        </mxCell>
        <mxCell id="y8c-V_NwI8Mhhs_DqDop-12" style="edgeStyle=orthogonalEdgeStyle;rounded=0;orthogonalLoop=1;jettySize=auto;html=1;exitX=0.5;exitY=1;exitDx=0;exitDy=0;entryX=0.476;entryY=0.011;entryDx=0;entryDy=0;entryPerimeter=0;" edge="1" parent="1" source="y8c-V_NwI8Mhhs_DqDop-10" target="y8c-V_NwI8Mhhs_DqDop-13">
          <mxGeometry relative="1" as="geometry">
            <mxPoint x="554" y="310" as="targetPoint" />
          </mxGeometry>
        </mxCell>
        <mxCell id="y8c-V_NwI8Mhhs_DqDop-10" value="" style="shape=partialRectangle;whiteSpace=wrap;html=1;bottom=1;right=1;left=1;top=0;fillColor=none;routingCenterX=-0.5;rotation=0;" vertex="1" parent="1">
          <mxGeometry x="444" y="230" width="220" height="30" as="geometry" />
        </mxCell>
        <mxCell id="y8c-V_NwI8Mhhs_DqDop-15" style="edgeStyle=orthogonalEdgeStyle;rounded=0;orthogonalLoop=1;jettySize=auto;html=1;exitX=0.5;exitY=1;exitDx=0;exitDy=0;entryX=0.5;entryY=0;entryDx=0;entryDy=0;" edge="1" parent="1" source="y8c-V_NwI8Mhhs_DqDop-13" target="y8c-V_NwI8Mhhs_DqDop-14">
          <mxGeometry relative="1" as="geometry" />
        </mxCell>
        <mxCell id="y8c-V_NwI8Mhhs_DqDop-13" value="&lt;font style=&quot;font-size: 14px;&quot;&gt;&lt;b&gt;Band 10 and 11&lt;/b&gt;&lt;/font&gt;" style="rounded=1;whiteSpace=wrap;html=1;fillColor=#dae8fc;gradientColor=#7ea6e0;strokeColor=#6c8ebf;" vertex="1" parent="1">
          <mxGeometry x="430" y="290" width="260" height="40" as="geometry" />
        </mxCell>
        <mxCell id="y8c-V_NwI8Mhhs_DqDop-17" style="edgeStyle=orthogonalEdgeStyle;rounded=0;orthogonalLoop=1;jettySize=auto;html=1;exitX=0.5;exitY=1;exitDx=0;exitDy=0;entryX=0.5;entryY=0;entryDx=0;entryDy=0;" edge="1" parent="1" source="y8c-V_NwI8Mhhs_DqDop-14" target="y8c-V_NwI8Mhhs_DqDop-16">
          <mxGeometry relative="1" as="geometry" />
        </mxCell>
        <mxCell id="y8c-V_NwI8Mhhs_DqDop-14" value="&lt;font style=&quot;font-size: 14px;&quot;&gt;&lt;b&gt;Conversion at sensor radiance (TOA)&lt;/b&gt;&lt;/font&gt;" style="rounded=1;whiteSpace=wrap;html=1;fillColor=#dae8fc;gradientColor=#7ea6e0;strokeColor=#6c8ebf;" vertex="1" parent="1">
          <mxGeometry x="430" y="360" width="260" height="40" as="geometry" />
        </mxCell>
        <mxCell id="y8c-V_NwI8Mhhs_DqDop-31" style="edgeStyle=orthogonalEdgeStyle;rounded=0;orthogonalLoop=1;jettySize=auto;html=1;exitX=0.75;exitY=1;exitDx=0;exitDy=0;" edge="1" parent="1" source="y8c-V_NwI8Mhhs_DqDop-16">
          <mxGeometry relative="1" as="geometry">
            <mxPoint x="625" y="510" as="targetPoint" />
          </mxGeometry>
        </mxCell>
        <mxCell id="y8c-V_NwI8Mhhs_DqDop-16" value="&lt;font style=&quot;font-size: 14px;&quot;&gt;&lt;b&gt;AT sensor brightness Temperature (TB)&lt;/b&gt;&lt;/font&gt;" style="rounded=1;whiteSpace=wrap;html=1;fillColor=#dae8fc;gradientColor=#7ea6e0;strokeColor=#6c8ebf;" vertex="1" parent="1">
          <mxGeometry x="430" y="430" width="260" height="40" as="geometry" />
        </mxCell>
        <mxCell id="y8c-V_NwI8Mhhs_DqDop-62" style="edgeStyle=orthogonalEdgeStyle;rounded=0;orthogonalLoop=1;jettySize=auto;html=1;exitX=0.75;exitY=1;exitDx=0;exitDy=0;" edge="1" parent="1" source="y8c-V_NwI8Mhhs_DqDop-21">
          <mxGeometry relative="1" as="geometry">
            <mxPoint x="640" y="680" as="targetPoint" />
          </mxGeometry>
        </mxCell>
        <mxCell id="y8c-V_NwI8Mhhs_DqDop-21" value="&lt;font style=&quot;font-size: 14px;&quot;&gt;&lt;b&gt;Mono-Window Algorithm&lt;/b&gt;&lt;/font&gt;" style="rounded=1;whiteSpace=wrap;html=1;fillColor=#dae8fc;gradientColor=#7ea6e0;strokeColor=#6c8ebf;" vertex="1" parent="1">
          <mxGeometry x="520" y="510" width="160" height="40" as="geometry" />
        </mxCell>
        <mxCell id="y8c-V_NwI8Mhhs_DqDop-33" style="edgeStyle=orthogonalEdgeStyle;rounded=0;orthogonalLoop=1;jettySize=auto;html=1;exitX=0.5;exitY=1;exitDx=0;exitDy=0;entryX=0.5;entryY=0;entryDx=0;entryDy=0;" edge="1" parent="1" source="y8c-V_NwI8Mhhs_DqDop-22" target="y8c-V_NwI8Mhhs_DqDop-24">
          <mxGeometry relative="1" as="geometry" />
        </mxCell>
        <mxCell id="y8c-V_NwI8Mhhs_DqDop-22" value="&lt;span style=&quot;font-size: 14px;&quot;&gt;&lt;b&gt;Land surface emissivity&lt;/b&gt;&lt;/span&gt;" style="rounded=1;whiteSpace=wrap;html=1;fillColor=#f5f5f5;gradientColor=#b3b3b3;strokeColor=#666666;" vertex="1" parent="1">
          <mxGeometry x="350" y="520" width="140" height="40" as="geometry" />
        </mxCell>
        <mxCell id="y8c-V_NwI8Mhhs_DqDop-43" style="edgeStyle=orthogonalEdgeStyle;rounded=0;orthogonalLoop=1;jettySize=auto;html=1;exitX=0.75;exitY=1;exitDx=0;exitDy=0;" edge="1" parent="1" source="y8c-V_NwI8Mhhs_DqDop-23">
          <mxGeometry relative="1" as="geometry">
            <mxPoint x="370" y="520" as="targetPoint" />
          </mxGeometry>
        </mxCell>
        <mxCell id="y8c-V_NwI8Mhhs_DqDop-23" value="&lt;font style=&quot;font-size: 14px;&quot;&gt;&lt;b&gt;Mono-Window Algorithm&lt;/b&gt;&lt;/font&gt;" style="rounded=1;whiteSpace=wrap;html=1;fillColor=#dae8fc;gradientColor=#7ea6e0;strokeColor=#6c8ebf;" vertex="1" parent="1">
          <mxGeometry x="250" y="410" width="160" height="60" as="geometry" />
        </mxCell>
        <mxCell id="y8c-V_NwI8Mhhs_DqDop-63" style="edgeStyle=orthogonalEdgeStyle;rounded=0;orthogonalLoop=1;jettySize=auto;html=1;exitX=0.5;exitY=1;exitDx=0;exitDy=0;entryX=0.5;entryY=0;entryDx=0;entryDy=0;" edge="1" parent="1" source="y8c-V_NwI8Mhhs_DqDop-24" target="y8c-V_NwI8Mhhs_DqDop-25">
          <mxGeometry relative="1" as="geometry" />
        </mxCell>
        <mxCell id="y8c-V_NwI8Mhhs_DqDop-24" value="&lt;span style=&quot;font-size: 14px;&quot;&gt;&lt;b&gt;Split-Window Algorithm&lt;/b&gt;&lt;/span&gt;" style="rounded=1;whiteSpace=wrap;html=1;fillColor=#dae8fc;gradientColor=#7ea6e0;strokeColor=#6c8ebf;" vertex="1" parent="1">
          <mxGeometry x="350" y="605" width="140" height="45" as="geometry" />
        </mxCell>
        <mxCell id="y8c-V_NwI8Mhhs_DqDop-69" style="edgeStyle=orthogonalEdgeStyle;rounded=0;orthogonalLoop=1;jettySize=auto;html=1;exitX=0.5;exitY=1;exitDx=0;exitDy=0;" edge="1" parent="1" source="y8c-V_NwI8Mhhs_DqDop-25">
          <mxGeometry relative="1" as="geometry">
            <mxPoint x="420" y="740" as="targetPoint" />
          </mxGeometry>
        </mxCell>
        <mxCell id="y8c-V_NwI8Mhhs_DqDop-25" value="&lt;span style=&quot;font-size: 14px;&quot;&gt;&lt;b&gt;LST map 2014, 2020&lt;/b&gt;&lt;/span&gt;" style="rounded=1;whiteSpace=wrap;html=1;fillColor=#f5f5f5;gradientColor=#b3b3b3;strokeColor=#666666;" vertex="1" parent="1">
          <mxGeometry x="350" y="680" width="140" height="40" as="geometry" />
        </mxCell>
        <mxCell id="y8c-V_NwI8Mhhs_DqDop-26" value="&lt;span style=&quot;font-size: 14px;&quot;&gt;&lt;b&gt;LST map 1984&lt;/b&gt;&lt;/span&gt;" style="rounded=1;whiteSpace=wrap;html=1;fillColor=#f5f5f5;gradientColor=#b3b3b3;strokeColor=#666666;" vertex="1" parent="1">
          <mxGeometry x="550" y="680" width="140" height="40" as="geometry" />
        </mxCell>
        <mxCell id="y8c-V_NwI8Mhhs_DqDop-74" style="edgeStyle=orthogonalEdgeStyle;rounded=0;orthogonalLoop=1;jettySize=auto;html=1;exitX=1;exitY=0.5;exitDx=0;exitDy=0;entryX=1;entryY=0.5;entryDx=0;entryDy=0;" edge="1" parent="1" target="y8c-V_NwI8Mhhs_DqDop-71">
          <mxGeometry relative="1" as="geometry">
            <mxPoint x="550" y="880" as="targetPoint" />
            <mxPoint x="764.04" y="40" as="sourcePoint" />
            <Array as="points">
              <mxPoint x="784" y="40" />
              <mxPoint x="784" y="880" />
            </Array>
          </mxGeometry>
        </mxCell>
        <mxCell id="y8c-V_NwI8Mhhs_DqDop-27" value="&lt;span style=&quot;font-size: 14px;&quot;&gt;&lt;b&gt;LULC 1986,2014 and 2024&lt;/b&gt;&lt;/span&gt;" style="rounded=1;whiteSpace=wrap;html=1;fillColor=#fff2cc;gradientColor=#ffd966;strokeColor=#d6b656;" vertex="1" parent="1">
          <mxGeometry x="634" y="25" width="130" height="50" as="geometry" />
        </mxCell>
        <mxCell id="y8c-V_NwI8Mhhs_DqDop-73" style="edgeStyle=orthogonalEdgeStyle;rounded=0;orthogonalLoop=1;jettySize=auto;html=1;exitX=0.25;exitY=1;exitDx=0;exitDy=0;entryX=0;entryY=0.5;entryDx=0;entryDy=0;" edge="1" parent="1" source="y8c-V_NwI8Mhhs_DqDop-28" target="y8c-V_NwI8Mhhs_DqDop-71">
          <mxGeometry relative="1" as="geometry">
            <Array as="points">
              <mxPoint x="80" y="75" />
              <mxPoint x="80" y="880" />
            </Array>
          </mxGeometry>
        </mxCell>
        <mxCell id="y8c-V_NwI8Mhhs_DqDop-28" value="&lt;span style=&quot;font-size: 14px;&quot;&gt;&lt;b&gt;Rainfall (1986-2024)&lt;/b&gt;&lt;/span&gt;" style="rounded=1;whiteSpace=wrap;html=1;fillColor=#ffcd28;gradientColor=#ffa500;strokeColor=#d79b00;" vertex="1" parent="1">
          <mxGeometry x="70" y="30" width="150" height="45" as="geometry" />
        </mxCell>
        <mxCell id="y8c-V_NwI8Mhhs_DqDop-34" value="&lt;font style=&quot;font-size: 14px;&quot;&gt;&lt;b&gt;Multispectral Band&lt;/b&gt;&lt;/font&gt;" style="rounded=1;whiteSpace=wrap;html=1;fillColor=#ffcd28;gradientColor=#ffa500;strokeColor=#d79b00;" vertex="1" parent="1">
          <mxGeometry x="145" y="170" width="190" height="40" as="geometry" />
        </mxCell>
        <mxCell id="y8c-V_NwI8Mhhs_DqDop-35" value="&lt;font style=&quot;font-size: 14px;&quot;&gt;&lt;b&gt;Spectral Indices&lt;/b&gt;&lt;/font&gt;" style="rounded=1;whiteSpace=wrap;html=1;fillColor=#dae8fc;gradientColor=#7ea6e0;strokeColor=#6c8ebf;" vertex="1" parent="1">
          <mxGeometry x="150" y="250" width="190" height="30" as="geometry" />
        </mxCell>
        <mxCell id="y8c-V_NwI8Mhhs_DqDop-40" style="edgeStyle=orthogonalEdgeStyle;rounded=0;orthogonalLoop=1;jettySize=auto;html=1;exitX=0.5;exitY=1;exitDx=0;exitDy=0;" edge="1" parent="1" source="y8c-V_NwI8Mhhs_DqDop-36">
          <mxGeometry relative="1" as="geometry">
            <mxPoint x="375" y="410" as="targetPoint" />
          </mxGeometry>
        </mxCell>
        <mxCell id="y8c-V_NwI8Mhhs_DqDop-36" value="&lt;font style=&quot;font-size: 14px;&quot;&gt;&lt;b&gt;NDVI&lt;/b&gt;&lt;/font&gt;" style="rounded=1;whiteSpace=wrap;html=1;fillColor=#f5f5f5;gradientColor=#b3b3b3;strokeColor=#666666;" vertex="1" parent="1">
          <mxGeometry x="340" y="320" width="70" height="40" as="geometry" />
        </mxCell>
        <mxCell id="y8c-V_NwI8Mhhs_DqDop-37" value="&lt;font style=&quot;font-size: 14px;&quot;&gt;&lt;b&gt;MBSI&lt;/b&gt;&lt;/font&gt;" style="rounded=1;whiteSpace=wrap;html=1;fillColor=#f5f5f5;gradientColor=#b3b3b3;strokeColor=#666666;" vertex="1" parent="1">
          <mxGeometry x="180" y="320" width="60" height="40" as="geometry" />
        </mxCell>
        <mxCell id="y8c-V_NwI8Mhhs_DqDop-38" value="&lt;font style=&quot;font-size: 14px;&quot;&gt;&lt;b&gt;NDISI&lt;/b&gt;&lt;/font&gt;" style="rounded=1;whiteSpace=wrap;html=1;fillColor=#f5f5f5;gradientColor=#b3b3b3;strokeColor=#666666;" vertex="1" parent="1">
          <mxGeometry x="250" y="320" width="70" height="40" as="geometry" />
        </mxCell>
        <mxCell id="y8c-V_NwI8Mhhs_DqDop-39" value="&lt;font style=&quot;font-size: 14px;&quot;&gt;&lt;b&gt;MBSI&lt;/b&gt;&lt;/font&gt;" style="rounded=1;whiteSpace=wrap;html=1;fillColor=#f5f5f5;gradientColor=#b3b3b3;strokeColor=#666666;" vertex="1" parent="1">
          <mxGeometry x="100" y="320" width="70" height="40" as="geometry" />
        </mxCell>
        <mxCell id="y8c-V_NwI8Mhhs_DqDop-59" style="edgeStyle=orthogonalEdgeStyle;rounded=0;orthogonalLoop=1;jettySize=auto;html=1;exitX=0.25;exitY=1;exitDx=0;exitDy=0;entryX=0.378;entryY=-0.015;entryDx=0;entryDy=0;entryPerimeter=0;" edge="1" parent="1" source="y8c-V_NwI8Mhhs_DqDop-44" target="y8c-V_NwI8Mhhs_DqDop-58">
          <mxGeometry relative="1" as="geometry">
            <mxPoint x="180" y="660" as="targetPoint" />
          </mxGeometry>
        </mxCell>
        <mxCell id="y8c-V_NwI8Mhhs_DqDop-44" value="" style="shape=partialRectangle;whiteSpace=wrap;html=1;bottom=1;right=1;left=1;top=0;fillColor=none;routingCenterX=-0.5;rotation=0;" vertex="1" parent="1">
          <mxGeometry x="120" y="360" width="240" height="20" as="geometry" />
        </mxCell>
        <mxCell id="y8c-V_NwI8Mhhs_DqDop-45" value="" style="shape=partialRectangle;whiteSpace=wrap;html=1;bottom=1;right=1;left=1;top=0;fillColor=none;routingCenterX=-0.5;rotation=-180;" vertex="1" parent="1">
          <mxGeometry x="150" y="300" width="230" height="20" as="geometry" />
        </mxCell>
        <mxCell id="y8c-V_NwI8Mhhs_DqDop-46" style="edgeStyle=orthogonalEdgeStyle;rounded=0;orthogonalLoop=1;jettySize=auto;html=1;exitX=0.5;exitY=1;exitDx=0;exitDy=0;entryX=0.592;entryY=1.033;entryDx=0;entryDy=0;entryPerimeter=0;" edge="1" parent="1" source="y8c-V_NwI8Mhhs_DqDop-35" target="y8c-V_NwI8Mhhs_DqDop-45">
          <mxGeometry relative="1" as="geometry" />
        </mxCell>
        <mxCell id="y8c-V_NwI8Mhhs_DqDop-50" style="edgeStyle=orthogonalEdgeStyle;rounded=0;orthogonalLoop=1;jettySize=auto;html=1;exitX=0.5;exitY=1;exitDx=0;exitDy=0;entryX=0.464;entryY=-0.022;entryDx=0;entryDy=0;entryPerimeter=0;" edge="1" parent="1" source="y8c-V_NwI8Mhhs_DqDop-34" target="y8c-V_NwI8Mhhs_DqDop-35">
          <mxGeometry relative="1" as="geometry" />
        </mxCell>
        <mxCell id="y8c-V_NwI8Mhhs_DqDop-54" style="edgeStyle=orthogonalEdgeStyle;rounded=0;orthogonalLoop=1;jettySize=auto;html=1;exitX=0.75;exitY=1;exitDx=0;exitDy=0;entryX=0.75;entryY=0;entryDx=0;entryDy=0;" edge="1" parent="1" source="y8c-V_NwI8Mhhs_DqDop-45" target="y8c-V_NwI8Mhhs_DqDop-45">
          <mxGeometry relative="1" as="geometry" />
        </mxCell>
        <mxCell id="y8c-V_NwI8Mhhs_DqDop-55" style="edgeStyle=orthogonalEdgeStyle;rounded=0;orthogonalLoop=1;jettySize=auto;html=1;exitX=0.75;exitY=1;exitDx=0;exitDy=0;entryX=0.75;entryY=0;entryDx=0;entryDy=0;" edge="1" parent="1">
          <mxGeometry relative="1" as="geometry">
            <mxPoint x="284.5" y="300" as="sourcePoint" />
            <mxPoint x="284.5" y="320" as="targetPoint" />
          </mxGeometry>
        </mxCell>
        <mxCell id="y8c-V_NwI8Mhhs_DqDop-56" style="edgeStyle=orthogonalEdgeStyle;rounded=0;orthogonalLoop=1;jettySize=auto;html=1;exitX=0.75;exitY=1;exitDx=0;exitDy=0;entryX=0.75;entryY=0;entryDx=0;entryDy=0;" edge="1" parent="1">
          <mxGeometry relative="1" as="geometry">
            <mxPoint x="210" y="360" as="sourcePoint" />
            <mxPoint x="210" y="380" as="targetPoint" />
          </mxGeometry>
        </mxCell>
        <mxCell id="y8c-V_NwI8Mhhs_DqDop-57" style="edgeStyle=orthogonalEdgeStyle;rounded=0;orthogonalLoop=1;jettySize=auto;html=1;exitX=0.75;exitY=1;exitDx=0;exitDy=0;entryX=0.75;entryY=0;entryDx=0;entryDy=0;" edge="1" parent="1">
          <mxGeometry relative="1" as="geometry">
            <mxPoint x="284.5" y="360" as="sourcePoint" />
            <mxPoint x="284.5" y="380" as="targetPoint" />
          </mxGeometry>
        </mxCell>
        <mxCell id="y8c-V_NwI8Mhhs_DqDop-58" value="&lt;font style=&quot;font-size: 14px;&quot;&gt;&lt;b&gt;Temporal Analysis&lt;/b&gt;&lt;/font&gt;" style="rounded=1;whiteSpace=wrap;html=1;fillColor=#dae8fc;gradientColor=#7ea6e0;strokeColor=#6c8ebf;" vertex="1" parent="1">
          <mxGeometry x="120" y="677.5" width="160" height="42.5" as="geometry" />
        </mxCell>
        <mxCell id="y8c-V_NwI8Mhhs_DqDop-72" style="edgeStyle=orthogonalEdgeStyle;rounded=0;orthogonalLoop=1;jettySize=auto;html=1;exitX=0.5;exitY=1;exitDx=0;exitDy=0;entryX=0.5;entryY=0;entryDx=0;entryDy=0;" edge="1" parent="1" source="y8c-V_NwI8Mhhs_DqDop-64" target="y8c-V_NwI8Mhhs_DqDop-71">
          <mxGeometry relative="1" as="geometry" />
        </mxCell>
        <mxCell id="y8c-V_NwI8Mhhs_DqDop-64" value="&lt;font style=&quot;font-size: 14px;&quot;&gt;&lt;b&gt;Correlation Analysis&lt;/b&gt;&lt;/font&gt;" style="rounded=1;whiteSpace=wrap;html=1;fillColor=#dae8fc;gradientColor=#7ea6e0;strokeColor=#6c8ebf;" vertex="1" parent="1">
          <mxGeometry x="280" y="770" width="265" height="40" as="geometry" />
        </mxCell>
        <mxCell id="y8c-V_NwI8Mhhs_DqDop-65" value="" style="shape=partialRectangle;whiteSpace=wrap;html=1;bottom=1;right=1;left=1;top=0;fillColor=none;routingCenterX=-0.5;rotation=0;" vertex="1" parent="1">
          <mxGeometry x="180" y="720" width="420" height="20" as="geometry" />
        </mxCell>
        <mxCell id="y8c-V_NwI8Mhhs_DqDop-70" style="edgeStyle=orthogonalEdgeStyle;rounded=0;orthogonalLoop=1;jettySize=auto;html=1;exitX=0.5;exitY=1;exitDx=0;exitDy=0;entryX=0.421;entryY=0.039;entryDx=0;entryDy=0;entryPerimeter=0;" edge="1" parent="1" source="y8c-V_NwI8Mhhs_DqDop-65" target="y8c-V_NwI8Mhhs_DqDop-64">
          <mxGeometry relative="1" as="geometry" />
        </mxCell>
        <mxCell id="y8c-V_NwI8Mhhs_DqDop-76" style="edgeStyle=orthogonalEdgeStyle;rounded=0;orthogonalLoop=1;jettySize=auto;html=1;exitX=0.5;exitY=1;exitDx=0;exitDy=0;entryX=0.5;entryY=0;entryDx=0;entryDy=0;" edge="1" parent="1" source="y8c-V_NwI8Mhhs_DqDop-71" target="y8c-V_NwI8Mhhs_DqDop-75">
          <mxGeometry relative="1" as="geometry" />
        </mxCell>
        <mxCell id="y8c-V_NwI8Mhhs_DqDop-71" value="&lt;font style=&quot;font-size: 14px;&quot;&gt;&lt;b&gt;Spatial Analysis&lt;/b&gt;&lt;/font&gt;" style="rounded=1;whiteSpace=wrap;html=1;fillColor=#dae8fc;gradientColor=#7ea6e0;strokeColor=#6c8ebf;" vertex="1" parent="1">
          <mxGeometry x="280" y="860" width="265" height="40" as="geometry" />
        </mxCell>
        <mxCell id="y8c-V_NwI8Mhhs_DqDop-75" value="&lt;font style=&quot;font-size: 14px;&quot;&gt;&lt;b&gt;Soil degradation Index&lt;/b&gt;&lt;/font&gt;" style="rounded=1;whiteSpace=wrap;html=1;fillColor=#d5e8d4;gradientColor=#97d077;strokeColor=#82b366;" vertex="1" parent="1">
          <mxGeometry x="280" y="950" width="265" height="40" as="geometry" />
        </mxCell>
        <mxCell id="y8c-V_NwI8Mhhs_DqDop-78" style="edgeStyle=orthogonalEdgeStyle;rounded=0;orthogonalLoop=1;jettySize=auto;html=1;exitX=1;exitY=0.75;exitDx=0;exitDy=0;entryX=0;entryY=0.5;entryDx=0;entryDy=0;" edge="1" parent="1" source="y8c-V_NwI8Mhhs_DqDop-77" target="y8c-V_NwI8Mhhs_DqDop-75">
          <mxGeometry relative="1" as="geometry" />
        </mxCell>
        <mxCell id="y8c-V_NwI8Mhhs_DqDop-77" value="&lt;font style=&quot;font-size: 14px;&quot;&gt;&lt;b&gt;Soil Organic Matter (SOM)&lt;/b&gt;&lt;/font&gt;" style="rounded=1;whiteSpace=wrap;html=1;fillColor=#fff2cc;gradientColor=#ffd966;strokeColor=#d6b656;" vertex="1" parent="1">
          <mxGeometry x="80" y="910" width="110" height="80" as="geometry" />
        </mxCell>
        <mxCell id="y8c-V_NwI8Mhhs_DqDop-81" value="" style="endArrow=classic;html=1;rounded=0;" edge="1" parent="1">
          <mxGeometry width="50" height="50" relative="1" as="geometry">
            <mxPoint x="460" y="470" as="sourcePoint" />
            <mxPoint x="460" y="520" as="targetPoint" />
          </mxGeometry>
        </mxCell>
      </root>
    </mxGraphModel>
  </diagram>
</mxfile>
